<svg xmlns="http://www.w3.org/2000/svg" viewBox="0 0 18 18">
  <defs>
    <style>
      .cls-1 {
        fill: #3ad46d;
      }
    </style>
  </defs>
  <path id="Path_1205" data-name="Path 1205" class="cls-1" d="M9,0a9,9,0,1,0,9,9A9,9,0,0,0,9,0Zm5.678,7.039L9.342,12.353a1.115,1.115,0,0,1-.115.138l-.825.825a1.061,1.061,0,0,1-1.477,0L3.318,9.683a1.061,1.061,0,0,1,0-1.477l.825-.825a1.061,1.061,0,0,1,1.477,0L7.66,9.435l4.715-4.693a1.061,1.061,0,0,1,1.477,0l.825.825A1.064,1.064,0,0,1,14.678,7.039Z"/>
</svg>
